<svg version="1.1" id="Layer_1" xmlns="http://www.w3.org/2000/svg" xmlns:xlink="http://www.w3.org/1999/xlink" x="0px" y="0px" viewBox="0 0 500 500" style="width: 166px;" xml:space="preserve" data-imageid="problem-solving-5-50" imageName="Problem Solving 5" class="illustrations_image">
<style type="text/css">
	.st0_problem-solving-5-50{fill:#F56132;}
	.st1_problem-solving-5-50{fill:#093F68;}
	.st2_problem-solving-5-50{fill:#70CC40;}
	.st3_problem-solving-5-50{fill:#68E1FD;}
	.st4_problem-solving-5-50{fill:#725858;}
	.st5_problem-solving-5-50{fill:#FFC9B0;}
	.st6_problem-solving-5-50{fill:#FFFFFF;}
	.st7_problem-solving-5-50{fill:#FFBC0E;}
	.st8_problem-solving-5-50{fill:#DFEAEF;}
</style>
<g id="puzzles_problem-solving-5-50">
	<path class="st0_problem-solving-5-50" d="M335.7,295.1v99.2h-99.2v-99.2h34.8c0,0-3.8,11.2,1.3,18.5c4.2,6.1,8.1,8.1,15.7,8.1c6.7,0,15.6-3.5,16.9-14&#xA;&#9;&#9;c1-7.9-2.1-12.6-2.1-12.6L335.7,295.1z"/>
	<path class="st1_problem-solving-5-50" d="M335.7,396.1h-99.2c-1,0-1.8-0.8-1.8-1.8v-99.2c0-1,0.8-1.8,1.8-1.8h34.8c0.6,0,1.1,0.3,1.5,0.8&#xA;&#9;&#9;c0.3,0.5,0.4,1.1,0.2,1.6c0,0.1-3.4,10.4,1.1,16.9c3.9,5.6,7.2,7.3,14.2,7.3c2.3,0,13.6-0.6,15.1-12.4c0.9-7-1.8-11.4-1.8-11.4&#xA;&#9;&#9;c-0.3-0.6-0.4-1.3-0.1-1.8c0.3-0.6,0.9-0.9,1.6-0.9h32.5c1,0,1.8,0.8,1.8,1.8v99.2C337.5,395.3,336.7,396.1,335.7,396.1z&#xA;&#9;&#9; M238.4,392.5h95.6v-95.6H306c1.2,3.5,1.6,7.3,1.1,11c-1.5,11.5-11,15.5-18.7,15.5c-8.2,0-12.6-2.3-17.2-8.8&#xA;&#9;&#9;c-4.1-5.9-3-13.8-2.2-17.7h-30.7L238.4,392.5z"/>
	<path class="st2_problem-solving-5-50" d="M434.9,196.1v99h-99v-33.3c-3.5,1.4-7.4,1.9-11.1,1.3c-10.5-1.4-14-10.2-14-16.9c0-7.6,2-11.5,8.1-15.7&#xA;&#9;&#9;c5.7-4,13.8-2.5,17-1.7v-32.7H434.9z"/>
	<path class="st1_problem-solving-5-50" d="M434.9,296.9h-99c-1,0-1.8-0.8-1.8-1.8v-30.8c-3.1,0.8-6.4,1-9.5,0.6c-11.5-1.5-15.5-11-15.5-18.7&#xA;&#9;&#9;c0-8.1,2.3-12.6,8.9-17.1c5.2-3.6,12.1-3.2,16.2-2.5v-30.5c0-1,0.8-1.8,1.8-1.8h99c1,0,1.8,0.8,1.8,1.8c0,0,0,0,0,0v99&#xA;&#9;&#9;C436.7,296.1,435.9,296.9,434.9,296.9C434.9,296.9,434.9,296.9,434.9,296.9z M337.7,293.3h95.4v-95.4h-95.4v30.9&#xA;&#9;&#9;c0,0.6-0.3,1.1-0.7,1.4c-0.4,0.3-1,0.5-1.5,0.3c-2.3-0.6-10.3-2.2-15.5,1.4c-5.6,3.9-7.3,7.2-7.3,14.2c0,2.3,0.6,13.6,12.4,15.1&#xA;&#9;&#9;c3.4,0.5,7,0.1,10.2-1.2c0.9-0.4,2,0,2.4,0.9c0.1,0.2,0.1,0.5,0.1,0.7V293.3z"/>
	<path class="st3_problem-solving-5-50 targetColor" d="M434.9,295.1v99.2h-99.2v-34.1c0,0-4.8,3-12.6,2.1c-10.5-1.4-14-10.2-14-16.9c0-7.6,2-11.5,8.1-15.7&#xA;&#9;&#9;c7.3-5.1,18.5-1.3,18.5-1.3v-33.2H369c0,0-3.8-11.2,1.3-18.5c4.2-6.1,8.1-8.1,15.7-8.1c6.7,0,15.6,3.5,16.9,14&#xA;&#9;&#9;c1,7.9-2.1,12.6-2.1,12.6L434.9,295.1z" style="fill: rgb(104, 225, 253);"/>
	<path class="st1_problem-solving-5-50" d="M434.9,396.1h-99.2c-1,0-1.8-0.8-1.8-1.8V363c-3.5,1.2-7.3,1.6-11,1c-11.5-1.5-15.6-11-15.6-18.7&#xA;&#9;&#9;c0-8.1,2.3-12.6,8.9-17.1c5.9-4.1,13.8-3.1,17.7-2.2v-30.9c0-1,0.8-1.8,1.8-1.8h30.9c-0.9-3.9-1.9-11.8,2.2-17.7&#xA;&#9;&#9;c4.5-6.5,9-8.8,17.2-8.8c7.7,0,17.2,4.1,18.7,15.5c0.5,3.7,0.2,7.5-1,11h31.2c1,0,1.8,0.8,1.8,1.8v99.2&#xA;&#9;&#9;C436.8,395.3,436,396.1,434.9,396.1C434.9,396.1,434.9,396.1,434.9,396.1z M337.5,392.5h95.6v-95.6h-32.2c-1,0-1.8-0.8-1.8-1.8&#xA;&#9;&#9;c0-0.3,0.1-0.7,0.3-1c0,0,2.7-4.3,1.8-11.4c-1.5-11.8-12.9-12.4-15.1-12.4c-7,0-10.3,1.7-14.2,7.3c-4.5,6.5-1.1,16.8-1.1,16.9&#xA;&#9;&#9;c0.2,0.5,0.1,1.2-0.2,1.6c-0.3,0.5-0.9,0.7-1.5,0.8h-31.5v31.4c0,0.6-0.3,1.1-0.8,1.5c-0.5,0.3-1.1,0.4-1.6,0.2&#xA;&#9;&#9;c-0.1,0-10.4-3.4-16.9,1.1c-5.6,3.9-7.3,7.2-7.3,14.2c0,2.3,0.6,13.6,12.4,15.1c7,0.9,11.4-1.8,11.4-1.8c0.6-0.3,1.3-0.3,1.8,0&#xA;&#9;&#9;c0.6,0.3,0.9,0.9,0.9,1.6V392.5z"/>
</g>
<g id="character_problem-solving-5-50">
	<path class="st4_problem-solving-5-50" d="M96.9,105.7h9.2c33.1,0,59.9,26.8,59.9,59.8c0,0,0,0,0,0v41.6l0,0H37l0,0v-41.6&#xA;&#9;&#9;C37,132.5,63.8,105.7,96.9,105.7C96.9,105.7,96.9,105.7,96.9,105.7z"/>
	<path class="st1_problem-solving-5-50" d="M166,209H37c-1,0-1.8-0.8-1.8-1.8v-43.3c0-33.1,26.8-59.9,59.9-59.9h12.7c33.1,0,59.9,26.9,59.9,59.9v43.3&#xA;&#9;&#9;C167.7,208.2,167,209,166,209z M38.9,205.4h125.3v-41.5c0-31.1-25.2-56.3-56.3-56.3H95.2c-31.1,0-56.3,25.2-56.3,56.3L38.9,205.4z"/>
	<path class="st5_problem-solving-5-50" d="M216.5,267c0.6-0.2,8.9-15.6,8.9-15.6s-0.3-9.7-0.3-14.5s3.7-5.5,4.7-3.2s1.7,9.2,1.9,9.2s5.7-15.5,7-16.2&#xA;&#9;&#9;s15.6,6.7,16.3,11.5c0.4,2.3-2.1,10.1-4.8,17.5c-0.8,2.1-8,6.5-8,6.5s-8.2,11-10.6,13.5L216.5,267z"/>
	<path class="st1_problem-solving-5-50" d="M231.6,277.6c-0.3,0-0.6-0.1-0.9-0.2l-15.1-8.8c-0.6-0.4-1-1.1-0.9-1.8c0.1-0.4,0.3-0.8,0.6-1.1&#xA;&#9;&#9;c0.8-1.1,4.7-8.2,8.2-14.7c-0.1-2-0.3-9.9-0.3-14.1c0-4,2.1-5.8,3.9-6.2c1.8-0.4,3.6,0.6,4.2,2.3c0.4,1,0.7,2.1,0.9,3.2&#xA;&#9;&#9;c3.6-9.4,4.5-10.6,5.5-11.1c0.6-0.3,1.6-0.8,6.6,1.8c1.9,1,11.5,6.1,12.3,11.1c0.5,3.2-2.9,12.9-4.9,18.4c-0.9,2.3-6,5.7-8.4,7.2&#xA;&#9;&#9;c-1.3,1.8-8.3,11-10.5,13.4C232.6,277.4,232.1,277.6,231.6,277.6z M219.1,266.4l12.2,7c3-3.6,9.4-12.2,9.5-12.3&#xA;&#9;&#9;c0.1-0.2,0.3-0.3,0.5-0.5c3.5-2.1,6.8-4.8,7.2-5.6c3.5-9.4,4.9-15.2,4.7-16.6c-0.2-1-1.9-3.2-6.4-6.1c-2.3-1.5-4.7-2.8-7.3-3.7&#xA;&#9;&#9;c-1.2,2.1-3.8,9-4.8,11.7c-1.6,4.3-1.7,4.5-3.1,4.4c-1.6-0.1-1.7-1.1-2-3.5c-0.3-2.3-0.7-4.6-1.4-6.8c-0.1-0.2-0.2-0.2-0.2-0.2&#xA;&#9;&#9;c-0.3,0.1-1,0.8-1,2.7c0,4.7,0.3,14.3,0.3,14.4c0,0.3-0.1,0.6-0.2,0.9C222.6,260.3,220.4,264.3,219.1,266.4z M216,265.3L216,265.3z&#xA;&#9;&#9; M216,265.3L216,265.3z"/>
	<path class="st1_problem-solving-5-50" d="M235.9,255.8c-1,0-1.7-0.7-1.8-1.7c-0.4-6.6-3.6-9.7-3.7-9.9c-0.7-0.7-0.6-1.9,0.1-2.5&#xA;&#9;&#9;c0.7-0.6,1.7-0.7,2.4-0.1c0.2,0.2,4.4,4.2,4.8,12.3c0.1,1-0.7,1.8-1.7,1.9c0,0,0,0,0,0L235.9,255.8z"/>
	<path class="st3_problem-solving-5-50 targetColor" d="M215.6,261.5c0,0-6.9,21-26.2,27.2c-9.4,3-25.6-9.7-34.2-17.4c-9.7-8.8-22.3-13.6-35.3-13.5&#xA;&#9;&#9;c-7,0.1-15.8-0.5-25.8-0.7c-17.4-0.3-31.7,13.6-32,31c0,0.2,0,0.3,0,0.5v72.2h81.3l0.1-47.4v-12.5c0,0,22.5,32.3,56.4,13.8&#xA;&#9;&#9;c27.1-14.8,34.6-38.6,37-42.1L215.6,261.5z" style="fill: rgb(104, 225, 253);"/>
	<path class="st1_problem-solving-5-50" d="M143.3,362.6H62c-1,0-1.8-0.8-1.8-1.8v-72.2c0-18.4,14.9-33.3,33.3-33.4c0.2,0,0.3,0,0.5,0&#xA;&#9;&#9;c4.3,0.1,8.4,0.2,12.3,0.4c4.9,0.2,9.5,0.4,13.4,0.3c13.5-0.1,26.6,4.9,36.6,14c14.1,12.7,26.2,19.1,32.5,17.1&#xA;&#9;&#9;c18.3-5.9,25-25.8,25.1-26c0.2-0.5,0.5-0.9,1-1.1c0.5-0.2,1-0.2,1.5,0.1l21.3,11.2c0.5,0.2,0.8,0.7,0.9,1.2c0.1,0.5,0,1-0.3,1.5&#xA;&#9;&#9;c-0.3,0.4-0.8,1.6-1.5,2.9c-3.9,8.1-12.9,27.1-36.1,39.8c-27.4,15-47.8-2.2-55.5-10.5l-0.2,54.9C145,361.8,144.3,362.6,143.3,362.6&#xA;&#9;&#9;z M63.8,359h77.7l0.2-58.1c0-1,0.9-1.8,1.9-1.8c0.6,0,1.1,0.3,1.4,0.8c0.9,1.3,22,30.7,54.1,13.3c22.2-12.1,30.9-30.3,34.6-38.1&#xA;&#9;&#9;c0.3-0.6,0.6-1.1,0.8-1.6l-17.9-9.4c-2.3,5.5-10,21-26.6,26.4c-10.4,3.3-27-9.7-36-17.8c-9.3-8.5-21.5-13.2-34.1-13.1&#xA;&#9;&#9;c-4,0-8.7-0.1-13.6-0.3c-3.9-0.1-7.9-0.3-12.2-0.4c-7.9-0.2-15.6,2.9-21.2,8.5c-5.7,5.6-8.9,13.3-8.9,21.3L63.8,359z"/>
	<path class="st5_problem-solving-5-50" d="M91.3,249.7h18.4l0,0v14.1c0,2.4-1.9,4.3-4.3,4.3h-9.7c-2.4,0-4.3-1.9-4.3-4.3V249.7L91.3,249.7z"/>
	<path class="st1_problem-solving-5-50" d="M101.9,269.9h-2.8c-5.3,0-9.6-4.3-9.6-9.6v-10.6c0-1,0.8-1.8,1.8-1.8h18.4c1,0,1.8,0.8,1.8,1.8v10.6&#xA;&#9;&#9;C111.5,265.6,107.2,269.9,101.9,269.9z M93.1,251.5v8.8c0,3.3,2.7,6,6,6h2.8c3.3,0,6-2.7,6-6v-8.8L93.1,251.5z"/>
	<ellipse class="st5_problem-solving-5-50" cx="48" cy="201.9" rx="17.9" ry="15.4"/>
	<path class="st1_problem-solving-5-50" d="M48,219.1c-10.8,0-19.7-7.7-19.7-17.2s8.8-17.2,19.7-17.2s19.7,7.7,19.7,17.2S58.8,219.1,48,219.1z M48,188.3&#xA;&#9;&#9;c-8.9,0-16.1,6.1-16.1,13.6s7.2,13.6,16.1,13.6s16-6.1,16-13.6S56.8,188.3,48,188.3z"/>
	<ellipse class="st5_problem-solving-5-50" cx="152.2" cy="201.9" rx="17.9" ry="15.4"/>
	<path class="st1_problem-solving-5-50" d="M152.2,219.1c-10.9,0-19.7-7.7-19.7-17.2s8.8-17.2,19.7-17.2s19.7,7.7,19.7,17.2S163,219.1,152.2,219.1z&#xA;&#9;&#9; M152.2,188.3c-8.9,0-16.1,6.1-16.1,13.6s7.2,13.6,16.1,13.6s16.1-6.1,16.1-13.6S161,188.3,152.2,188.3z"/>
	<path class="st5_problem-solving-5-50" d="M100.5,252.2L100.5,252.2c-29.8,0-53.9-24.1-53.9-53.9v-49.9c0,0,28.9-13.2,58.3-13.2s49.5,13.2,49.5,13.2&#xA;&#9;&#9;v49.9C154.5,228,130.3,252.2,100.5,252.2z"/>
	<path class="st1_problem-solving-5-50" d="M100.5,254c-30.8,0-55.7-25-55.7-55.7v-50c0-0.7,0.4-1.3,1-1.6c1.2-0.5,29.6-13.3,59-13.4h0.2&#xA;&#9;&#9;c29.5,0,49.5,13,50.3,13.5c0.5,0.3,0.8,0.9,0.8,1.5v49.9C156.2,229,131.3,253.9,100.5,254z M48.4,149.5v48.7&#xA;&#9;&#9;c0,28.8,23.3,52.1,52.1,52.1s52.1-23.3,52.1-52.1v-48.9c-14.6-8.2-31-12.5-47.7-12.4C79.4,136.9,53.8,147.2,48.4,149.5z"/>
	<circle class="st1_problem-solving-5-50" cx="75.6" cy="190.4" r="5"/>
	<circle class="st1_problem-solving-5-50" cx="127.1" cy="190.4" r="5"/>
	<path class="st1_problem-solving-5-50" d="M100.3,209c-1.6,0-3.3-0.1-4.9-0.4c-1-0.2-1.7-1.1-1.5-2.1c0.2-1,1.1-1.7,2.1-1.5l0,0c2.4,0.4,4.8,0.4,7.1,0.1&#xA;&#9;&#9;c0.1-1.6-1.7-6.7-4.2-11.5c-0.4-0.9,0-2,0.9-2.4c0.8-0.4,1.8-0.1,2.3,0.7c1.8,3.4,5.7,11.6,4.2,14.9c-0.4,0.8-1.1,1.5-2,1.7&#xA;&#9;&#9;C103,208.8,101.7,209,100.3,209z"/>
	<path class="st1_problem-solving-5-50" d="M85.8,176.9L85.8,176.9l-23.8,0c-2-0.1-3.5-1.8-3.4-3.8c0.1-1.8,1.6-3.3,3.4-3.4l0,0l23.8,0.1&#xA;&#9;&#9;c2-0.1,3.7,1.4,3.8,3.4c0.1,2-1.4,3.7-3.4,3.8C86.1,176.9,85.9,176.9,85.8,176.9L85.8,176.9z"/>
	<path class="st1_problem-solving-5-50" d="M119.7,177.5c-2,0-3.6-1.7-3.5-3.7c0-1.9,1.5-3.4,3.3-3.5l23.8-1.2c2-0.1,3.7,1.4,3.8,3.4s-1.4,3.7-3.4,3.8&#xA;&#9;&#9;l-23.8,1.2L119.7,177.5z"/>
	<path class="st6_problem-solving-5-50" d="M109.7,216.8l-18.4-3.5c0,0-2.6,19.6,4.3,24.8S107.6,236.3,109.7,216.8z"/>
	<path class="st1_problem-solving-5-50" d="M99.8,241.5c-1.9-0.1-3.7-0.8-5.2-2c-7.5-5.6-5.3-24.3-5-26.4c0.1-0.5,0.3-0.9,0.7-1.2&#xA;&#9;&#9;c0.4-0.3,0.9-0.4,1.4-0.3l18.4,3.5c0.9,0.2,1.6,1.1,1.5,2c-1.6,14.1-4.6,22-9.2,24C101.5,241.3,100.7,241.5,99.8,241.5z&#xA;&#9;&#9; M92.9,215.4c-0.6,6.1-0.6,17.9,3.8,21.2c2.4,1.8,3.7,1.2,4.1,1.1c1.4-0.6,5-3.8,6.9-19.5L92.9,215.4z"/>
	<path class="st7_problem-solving-5-50" d="M251.4,209.7c-0.1,6.7,3.3,15.6,13.8,17.1c7.9,1.1,12.6-1.9,12.6-1.9l-0.3,32.5l-34.1-0.3&#xA;&#9;&#9;c0,0,3.1-4.7,2.2-12.6c-1.2-10.5-10-14.1-16.8-14.1c-7.6-0.1-11.5,1.9-15.8,7.9c-5.1,7.2-1.5,18.5-1.5,18.5l-33.2-0.3l1-99.2&#xA;&#9;&#9;l99.2,1l-0.4,34.8c0,0-11.2-3.9-18.5,1.1C253.6,198.2,251.5,202.1,251.4,209.7z"/>
	<path class="st1_problem-solving-5-50" d="M277.5,259L277.5,259l-34.1-0.3c-1,0-1.8-0.8-1.8-1.8c0-0.3,0.1-0.7,0.3-1c0,0,2.7-4.3,1.9-11.4&#xA;&#9;&#9;c-1.4-11.8-12.7-12.5-15-12.6c-7-0.1-10.4,1.6-14.3,7.2c-4.6,6.4-1.3,16.8-1.2,16.9c0.3,0.9-0.2,2-1.1,2.3&#xA;&#9;&#9;c-0.2,0.1-0.4,0.1-0.6,0.1l-33.2-0.3c-1,0-1.8-0.8-1.8-1.8c0,0,0,0,0,0l1-99.1c0-0.5,0.2-0.9,0.5-1.3c0.3-0.3,0.8-0.5,1.3-0.5&#xA;&#9;&#9;l99.2,1c1,0,1.8,0.8,1.8,1.8L280,193c0,0.6-0.3,1.1-0.8,1.4c-0.5,0.3-1.1,0.4-1.6,0.2c-0.1,0-10.4-3.5-16.9,0.9&#xA;&#9;&#9;c-5.6,3.8-7.4,7.1-7.4,14.1c0,2.3,0.5,13.6,12.2,15.2c7,1,11.4-1.6,11.4-1.7c0.6-0.3,1.3-0.3,1.8,0c0.6,0.3,0.9,0.9,0.9,1.6&#xA;&#9;&#9;l-0.3,32.5c0,0.5-0.2,0.9-0.5,1.3C278.5,258.9,278,259.1,277.5,259z M246.2,255.1l29.5,0.3l0.3-27.9c-3.5,1.2-7.3,1.5-11,0.9&#xA;&#9;&#9;c-11.5-1.6-15.4-11.1-15.4-18.9l0,0c0.1-8.2,2.4-12.6,9-17.1c5.9-4,13.8-2.9,17.7-2l0.3-30.7l-95.6-1l-1,95.6l29.1,0.3&#xA;&#9;&#9;c-0.8-3.9-1.8-11.8,2.3-17.7c4.6-6.5,9.1-8.8,17.3-8.7c7.7,0.1,17.2,4.2,18.5,15.7C247.9,247.8,247.5,251.6,246.2,255.1&#xA;&#9;&#9;L246.2,255.1z"/>
	<path class="st5_problem-solving-5-50" d="M157.8,271.7c3.4-1,4.9-10.6,7-13.3c4.1-5.4,11.6-9.1,18-10.7c1.3-0.3,2.8-0.6,3.8,0.2c-0.4,1.8-2,2.9-3.5,3.9&#xA;&#9;&#9;c-2.7,1.7-5.6,3.2-8.5,4.5l15.9-3.6c2-0.6,4.2-0.8,6.3-0.5c0.6,0.1,1.1,0.4,1.5,0.8c0.2,0.3,0.4,0.6,0.4,1c0.5,2.4-0.1,4.8-1.6,6.7&#xA;&#9;&#9;c-1.3,1.3-2.8,2.4-4.6,3.2c-3.5,1.9-8.4,3.4-11,6.4c-2.3,2.6-3.3,6.5-5.7,9.1L157.8,271.7z"/>
	<path class="st1_problem-solving-5-50" d="M175.9,281.2c-0.2,0-0.5-0.1-0.7-0.1l-18.1-7.7c-0.9-0.4-1.3-1.5-0.9-2.4c0.2-0.5,0.6-0.9,1.1-1&#xA;&#9;&#9;c1.2-0.4,2.8-4.7,3.6-7c0.6-2,1.4-3.9,2.5-5.7c4.6-5.9,12.8-9.8,19-11.3c1.6-0.4,3.6-0.7,5.3,0.5c0.6,0.4,0.9,1.1,0.7,1.8&#xA;&#9;&#9;c-0.3,1.4-1.1,2.7-2.3,3.6l4.1-0.9c2.3-0.7,4.7-0.8,7-0.5c1,0.2,1.9,0.7,2.6,1.5c0.4,0.5,0.6,1.1,0.8,1.7c0.7,2.9-0.1,6-2,8.3&#xA;&#9;&#9;c-1.4,1.5-3.2,2.7-5.1,3.6c-1,0.5-2.1,1-3.2,1.5c-2.8,1.3-5.6,2.6-7.3,4.5c-1,1.2-1.8,2.6-2.5,4.1c-0.8,1.8-1.9,3.6-3.2,5.1&#xA;&#9;&#9;C176.9,281,176.4,281.2,175.9,281.2z M161.1,271.2l14.2,6c0.7-1.1,1.4-2.2,1.9-3.3c0.8-1.7,1.8-3.3,3-4.8c2.2-2.4,5.5-4,8.5-5.3&#xA;&#9;&#9;c1.1-0.5,2.1-1,3-1.5c1.5-0.7,2.8-1.6,4-2.8c1.2-1.4,1.7-3.3,1.2-5.1c0-0.1-0.1-0.2-0.1-0.3c0,0-0.1-0.1-0.5-0.1&#xA;&#9;&#9;c-1.8-0.2-3.7-0.1-5.5,0.5L175,258c-1,0.2-1.9-0.4-2.2-1.4c-0.2-0.8,0.2-1.7,1-2c2.8-1.3,5.6-2.8,8.3-4.4c0.4-0.3,0.8-0.5,1.2-0.8&#xA;&#9;&#9;h-0.1c-5.6,1.4-13,4.8-17,10c-0.8,1.5-1.5,3.1-2,4.7C163.5,266.6,162.5,268.9,161.1,271.2L161.1,271.2z"/>
	<path class="st3_problem-solving-5-50 targetColor" d="M63.4,297.3c0,0,7,50.5,47.7,44.4s64.8-63.2,64.8-63.2l-17.2-14.3c0,0-33.8,52-47.9,45.5s-16.2-38.4-28.6-39.3&#xA;&#9;&#9;S59.1,280.8,63.4,297.3z" style="fill: rgb(104, 225, 253);"/>
	<path class="st1_problem-solving-5-50" d="M104.4,343.9c-7.8,0.1-15.5-2.4-21.7-7c-16.8-12.5-20.7-37.2-21-39.3c-2.2-8.4-0.7-16.4,4-22.1&#xA;&#9;&#9;c4.1-5,10.3-7.6,16.7-7.1c7.3,0.5,11.2,9.5,15.3,19c3.7,8.6,7.6,17.5,13.9,20.4c9.2,4.3,32.9-25.2,45.6-44.8&#xA;&#9;&#9;c0.5-0.8,1.7-1.1,2.5-0.5c0.1,0,0.1,0.1,0.2,0.1l17.2,14.4c0.6,0.5,0.8,1.4,0.5,2.1c-4.7,10.5-10.5,20.4-17.4,29.7&#xA;&#9;&#9;c-14.8,20.1-31.7,32-48.8,34.6C109.1,343.8,106.8,343.9,104.4,343.9z M80.9,272c-4.8,0-9.4,2.1-12.5,5.9c-4,4.8-5.2,11.6-3.3,19&#xA;&#9;&#9;c0,0.1,0,0.1,0,0.2c0,0.2,3.7,25.1,19.7,37c7.2,5.4,16,7.4,26,5.8c36-5.5,59.1-52.7,62.9-61L159,266.8c-6.2,9.3-31,45.1-45.7,45.1&#xA;&#9;&#9;c-1.1,0-2.2-0.2-3.3-0.7c-7.6-3.5-11.7-13-15.7-22.3c-3.7-8.5-7.1-16.5-12.3-16.9C81.7,272,81.3,272,80.9,272z"/>
	<rect x="62" y="360.8" class="st1_problem-solving-5-50" width="81.6" height="33.5"/>
	<path class="st1_problem-solving-5-50" d="M143.6,396.1H62c-1,0-1.8-0.8-1.8-1.8v-33.5c0-1,0.8-1.8,1.8-1.8c0,0,0,0,0,0h81.6c1,0,1.8,0.8,1.8,1.8v33.5&#xA;&#9;&#9;C145.4,395.3,144.6,396.1,143.6,396.1z M63.8,392.5h77.9v-29.9H63.8L63.8,392.5z"/>
</g>
<path id="line_problem-solving-5-50" class="st1_problem-solving-5-50" d="M470.3,396.1H26.8c-1,0-1.8-0.8-1.8-1.8c0-1,0.8-1.8,1.8-1.8h443.5c1,0,1.8,0.8,1.8,1.8&#xA;&#9;C472.1,395.3,471.3,396.1,470.3,396.1L470.3,396.1z"/>
<g id="lines_problem-solving-5-50">
	<path class="st8_problem-solving-5-50" d="M301.6,135.9c-1,0-1.8-0.8-1.8-1.8c0-0.4,0.2-0.9,0.5-1.2l13.9-15c0.6-0.8,1.8-0.9,2.5-0.2&#xA;&#9;&#9;c0.8,0.6,0.9,1.8,0.2,2.5c0,0-0.1,0.1-0.1,0.1l-13.9,15C302.6,135.7,302.1,135.9,301.6,135.9z"/>
	<path class="st8_problem-solving-5-50" d="M330.5,151.1h-22c-1-0.1-1.7-0.9-1.7-1.9c0.1-0.9,0.8-1.6,1.7-1.7h22c1-0.1,1.9,0.7,1.9,1.7&#xA;&#9;&#9;c0.1,1-0.7,1.9-1.7,1.9C330.7,151.1,330.6,151.1,330.5,151.1z"/>
	<path class="st8_problem-solving-5-50" d="M283,128.3h-0.3c-1-0.1-1.6-1-1.5-2l2.1-14.7c0.1-1,1.1-1.7,2-1.5c1,0.1,1.7,1.1,1.5,2l-2.1,14.7&#xA;&#9;&#9;C284.6,127.7,283.9,128.3,283,128.3z"/>
</g>
</svg>