<svg version="1.1" id="Layer_1" xmlns="http://www.w3.org/2000/svg" xmlns:xlink="http://www.w3.org/1999/xlink" x="0px" y="0px" viewBox="0 0 500 500" style="width: 166px;" xml:space="preserve" data-imageid="team-work-2-84" imageName="Team Work 2" class="illustrations_image">
<style type="text/css">
	.st0_team-work-2-84{fill:#E99A53;}
	.st1_team-work-2-84{opacity:0.63;fill:url(#SVGID_1_);enable-background:new    ;}
	.st2_team-work-2-84{opacity:0.63;fill:url(#SVGID_00000077298907283502820140000013734783081017182631_);enable-background:new    ;}
	.st3_team-work-2-84{fill:#68E1FD;}
	.st4_team-work-2-84{opacity:0.47;fill:#42210B;enable-background:new    ;}
	.st5_team-work-2-84{fill:#FFC9B5;}
	.st6_team-work-2-84{fill:#8CCC00;}
	.st7_team-work-2-84{fill:#053855;}
	.st8_team-work-2-84{fill:#42210B;}
	.st9_team-work-2-84{fill:#2C1D1A;}
	.st10_team-work-2-84{fill:#FFFFFF;}
	.st11_team-work-2-84{fill:#C13D3D;}
	.st12_team-work-2-84{fill:#FF9F9F;}
</style>
<g id="background_team-work-2-84">
	<path class="st0_team-work-2-84" d="M242.7,417.8L11,280.9c-7.4-4.1-13.7-10.9-6.5-15.4l232.5-134c3.5-2.2,8.8-3.6,12.3-1.5l243.2,141.1&#xA;&#9;&#9;c7.4,4.3,8.7,16.2,1.3,20.5L273.2,417.6C263.8,423.1,252.2,423.1,242.7,417.8z"/>
	
		<linearGradient id="SVGID_1_-team-work-2-84" gradientUnits="userSpaceOnUse" x1="211.933" y1="192.2116" x2="256.983" y2="108.3016" gradientTransform="matrix(1 0 0 -1 0 502)">
		<stop offset="0" style="stop-color:#053855"/>
		<stop offset="1" style="stop-color:#053855;stop-opacity:0"/>
	</linearGradient>
	<path class="st1_team-work-2-84" d="M227.5,351.5l51.9,28.9l-26.2,20.5l-32.4-19.6C224.8,378.6,223.3,354.1,227.5,351.5z"/>
	
		<linearGradient id="SVGID_00000115510632936643475070000012099134474322704020_-team-work-2-84" gradientUnits="userSpaceOnUse" x1="354.4418" y1="255.5611" x2="387.1018" y2="189.1111" gradientTransform="matrix(1 0 0 -1 0 502)">
		<stop offset="0" style="stop-color:#053855"/>
		<stop offset="1" style="stop-color:#053855;stop-opacity:0"/>
	</linearGradient>
	<path style="opacity:0.63;fill:url(#SVGID_00000115510632936643475070000012099134474322704020_);enable-background:new    ;" d="&#xA;&#9;&#9;M377.8,274c8.5,3.5,30.5,14.5,43.8,21.9c-4.6,2.8-9.3,5.2-14.3,7.2c-4.9,2.3-9.2,5.5-13.8,8.2c-7.3,4.4-15.6,7.4-22.2,12.9&#xA;&#9;&#9;c-9.3-7.9-24.9-19.7-33.3-26.4c-0.3,0-3.2-2.8-3-4.6C344.3,288.9,375.9,275.4,377.8,274z"/>
</g>
<g id="character_1_team-work-2-84">
	<polygon class="st3_team-work-2-84 targetColor" points="118.2,161.7 157.5,138.5 157.5,266.8 118.2,290.4 &#9;" style="fill: rgb(104, 225, 253);"/>
	<polygon class="st4_team-work-2-84" points="118.2,161.7 157.5,138.5 157.5,266.8 118.2,290.4 &#9;"/>
	<path class="st5_team-work-2-84" d="M268.6,122c0.1,0.2,3.7-4.3,4.2-6.3s1.4-10.5,2.6-10.9c3.2-1.2,0.2,5.4,1.4,5.2s6.4-6.1,8-6.5s4.1,3.5,3.4,5.8&#xA;&#9;&#9;s-3.8,6.4-4.2,6.7l-12.5,11.5"/>
	<path class="st6_team-work-2-84" d="M228.5,265.2c-0.3,1.7,0.1,3.4,1.2,4.8c1.8,1.9,8.7,8,9.3,9.3s1.6,4.9,0,6.1s-4.6,1.4-8.3,0s-12.7-7.2-14.4-9&#xA;&#9;&#9;s0-20.3,0-20.3s9.6-2.4,12.9,0L228.5,265.2z"/>
	<path class="st6_team-work-2-84" d="M203.2,277.5c-0.3,1.7,0.1,3.4,1.2,4.8c1.8,1.9,8.7,8,9.3,9.3s1.6,4.9,0,6.2s-4.6,1.4-8.3,0s-12.7-7.2-14.4-9&#xA;&#9;&#9;s0-20.3,0-20.3s9.6-2.4,12.9,0L203.2,277.5z"/>
	<path class="st7_team-work-2-84" d="M229.7,145.4c0,0,4.9,21.8,5.2,42.2s-2.1,75.1-2.1,75.1s-5.6,5.4-18.1,3.5v-76c0,0-4.3,1.6-4.3,4.8&#xA;&#9;&#9;s-4,80.9-4,80.9s-2.2,4.1-18.4-2.2c0,0-5.6-103,6.4-123"/>
	<path class="st8_team-work-2-84" d="M200.5,148.2c2.6,1.1,9,6.3,14.1,8.3c4.8,2,9.9,3.4,15.1,4.1c0.6-0.8,1.2-1.6,1.8-2.6&#xA;&#9;&#9;c15.1-23.6,22.6-41.7,22.1-46.8s-13.3-15-20.7-16.3s-20.8,1.7-20.8,1.7s-7.4,22.6-9.7,40.1C201.7,141.6,201.7,141.6,200.5,148.2z"/>
	<path class="st8_team-work-2-84" d="M242.1,102.2c2.1,1.6,5.5-4.6,4.8-5.6s-11.4-6.2-13.4-6.2c-4.4-0.1-3.3,7-3.3,7"/>
	<path class="st9_team-work-2-84" d="M240.8,69.1c2.2,0.6,3.8-2.9,8.4-2.6s8.1,4.6,9.2,6.7s3.5,0.1,4.5,2.9s-1.6,5.1-1,6.7c0,0.1,0.1,0.1,0.1,0.2&#xA;&#9;&#9;c0.2,2-0.7,4-2.3,5.3c-1.4,0.7-2.8,1.3-4.4,1.6l-21.5,0.9c-1.4-2.4,1.1-18.2,2.2-19.8C236.9,69.2,239,68.4,240.8,69.1z"/>
	<path class="st5_team-work-2-84" d="M257.3,83.3c0.4,1.2-10,16.7-15.4,14.9s-8.2-11.3-7.8-13.6s5.8-12.8,8.3-12.8S254.9,76,257.3,83.3z"/>
	<path class="st9_team-work-2-84" d="M257.2,77.4c0,0-0.8,4.3-7.2,2.2s-7.5-1-9.2,0.8c-3.2,3.3-9.7,6-5.5-6.7c0.2-0.6,8.4-6.8,13.4-5.2&#xA;&#9;&#9;S257.2,77.4,257.2,77.4z"/>
	<path class="st5_team-work-2-84" d="M239.2,82.3c0,0-0.4-4.2-2.6-3.3s-2.9,5-1.4,7.1"/>
	<path class="st8_team-work-2-84" d="M253.5,111.2c0.5,6.6,0.4,13.2-0.5,19.8c0,0,16.9-15.3,18.3-14.3s5.1,6.8,4.5,9.2&#xA;&#9;&#9;c-0.6,2.4-22.7,27.8-34.1,25.6s-6.5-27.4-6.5-27.4"/>
	<polygon class="st3_team-work-2-84 targetColor" points="301.2,211.4 301.2,79.2 140.7,173.8 140.7,307.6 &#9;" style="fill: rgb(104, 225, 253);"/>
	<path class="st5_team-work-2-84" d="M203,142.6l4.4,4.3c0,0,3.9,3.6,3.6,5.1s-5.3-2.3-6.4-3s2.3,8.3,1.8,9.3s-1.6,0.7-2.2,0s0.2,2.2-1.4,2&#xA;&#9;&#9;s-2-2.2-2-2.2s-1.1,2-2.4,1s-4.3-11.4-3.7-14.3S200.7,140.4,203,142.6z"/>
	<path class="st5_team-work-2-84" d="M194.4,145.5c0,0-1.2,9,0.3,9.6s3.5-2.6,3.5-2.6s-1.2-7.8-2-8.7S194.4,145.5,194.4,145.5z"/>
	<path class="st8_team-work-2-84" d="M212.1,96.7c0,0-25,11.8-30,17.8s9.2,33,9.2,33l12-4.7c0,0-7.9-20.2-4.9-21.2s18.8-6.2,18.8-6.2"/>
	
		<ellipse transform="matrix(0.1452 -0.9894 0.9894 0.1452 -57.8609 344.4489)" class="st10_team-work-2-84" cx="170.4" cy="205.7" rx="31.1" ry="16.1"/>
</g>
<g id="character_2_team-work-2-84">
	<path class="st5_team-work-2-84" d="M202.5,201.6c0,0-10.8-1.2-12-1.9s-4.6-14.2-5.7-14s-2.3,3.9-2.3,5.3s1.8,7.3,1,7.3s-2.5-3.1-3.8-2.4&#xA;&#9;&#9;s2.8,7.9,4.4,8.4c1.5,0.4,3,0.8,4.6,1l14.2,5.8"/>
	<path class="st6_team-work-2-84" d="M242.1,196c0,0-19.5,6.9-23.9,7s-22.8-2.7-22.8-2.7s-3.6,6.5-1.2,9.1c0,0,18.1,6,24.4,6.3s26.1-2.2,28.7-4.8&#xA;&#9;&#9;S242.1,196,242.1,196z"/>
	<path class="st4_team-work-2-84" d="M242.1,196c0,0-19.5,6.9-23.9,7s-22.8-2.7-22.8-2.7s-3.6,6.5-1.2,9.1c0,0,18.1,6,24.4,6.3s26.1-2.2,28.7-4.8&#xA;&#9;&#9;S242.1,196,242.1,196z"/>
	<path class="st9_team-work-2-84" d="M226.5,357.6c0,0-4.6-3.9-9.8-2.4s-4.1,5.4-0.8,7.8s15.8,10.8,19.6,10.8s4.7-3.2,4.8-5.3s-1.1-9.8-1.1-9.8"/>
	<path class="st9_team-work-2-84" d="M229.3,357.3c-0.1,0.5-0.6,0.9-1.1,0.8c0,0-0.1,0-0.1,0c-1.4-0.4-2.8-1-4.1-1.6c0,0-4.4,0-1.7,4.4&#xA;&#9;&#9;s12,5.7,14.9,4.1s1-6.4,1-6.4"/>
	<path class="st9_team-work-2-84" d="M215.7,366.3c0,0-4.6-3.9-9.8-2.4s-4.1,5.4-0.8,7.8s15.8,10.8,19.6,10.8s4.7-3.2,4.8-5.3s-1.1-9.8-1.1-9.8"/>
	<path class="st5_team-work-2-84" d="M218.5,366c-0.1,0.5-0.6,0.9-1.1,0.8c-0.1,0-0.1,0-0.1,0c-1.4-0.4-2.8-1-4.1-1.6c0,0-4.4,0-1.7,4.4&#xA;&#9;&#9;s12,5.8,14.9,4.1s1-6.4,1-6.4"/>
	<path class="st11_team-work-2-84" d="M213.7,245.2c-1.5,3.4-2.3,51.9-1.7,64.4s6.6,56.4,6.6,56.4s3.4,5.2,9.1,4.8s4.6-5,4.6-5s7.3,3.4,10.6-4.1&#xA;&#9;&#9;c1.2-2.8,6.8-80.1,6.8-88.9c-0.2-10.5-3.1-20.8-8.4-29.9"/>
	<path class="st9_team-work-2-84" d="M232.3,365.8c0,0,3.5-98,3-100.9s0.9,21.5,0.9,28.2C236.1,297.8,233.2,359.1,232.3,365.8z"/>
	<path class="st6_team-work-2-84" d="M213.7,245.2c0,0-5.1-34.7,2.1-41.3s27.2-11.2,31-7.9s-1.9,40.1-5.6,46.9S216.4,247.9,213.7,245.2z"/>
	<path class="st5_team-work-2-84" d="M222.8,178.4c-0.2,0.5-3.7,14.1,2.5,16s7.4-5.4,8.1-5.9s2.6-1.1,2.5-2.6s-2.4-1.5-2.4-1.5s-0.9-3.9-3.7-5.6&#xA;&#9;&#9;S222.8,178.4,222.8,178.4z"/>
	<path class="st9_team-work-2-84" d="M228.6,182.2c0,0-5.2,0.1-7.4-2.1c-1.7-1.7-1.6-4.5,0.1-6.1c0.1-0.1,0.2-0.2,0.3-0.3c0,0-2.1-4.1,1.8-5.1&#xA;&#9;&#9;c0,0,0.4-3.8,8-2s14.7,7.2,14.8,14.2s0.6,7.8,3.1,9.5s1.8,7.8-4.9,8s-15.8-0.3-16.6-3.6s4.2-3.6,4.8-6.9&#xA;&#9;&#9;C233.1,185.1,231.3,182.6,228.6,182.2C228.7,182.2,228.6,182.2,228.6,182.2z"/>
	<path class="st5_team-work-2-84" d="M184.7,222.4c0,0-6.8,0.4-8.1-0.2c-2.1-0.7-4.3-1.3-6.5-1.7v0.1c-0.3-0.1-0.6-0.1-1-0.2&#xA;&#9;&#9;c-0.7-0.1-2-0.3-2.3,0.4c-0.8,1.6,2.9,2.3,4.2,2.5c0,0,0,0,0,0.1c-0.5,0.5-7.9,1.6-9,1.8s-1.8,3.6-1.8,3.6c1.5,2.8,6,2.9,8.9,3&#xA;&#9;&#9;s6.9-2.6,7.9-2.5s8.3,1.4,9.5,0.8S184.7,222.4,184.7,222.4z"/>
	<path class="st6_team-work-2-84" d="M216.4,204.1c-3.2,1.2-5.5,3.8-8.2,5.7c-2,1.4-4,2.9-6.1,4.2c-2,1.5-4.1,2.7-6.5,3.5c-3.7,1-7.5,1.3-11.2,2&#xA;&#9;&#9;c-0.9,0.1-1.8,0.3-2.6,0.8c-1.6,1.4-3.9,7.7,2,12.3c4.9,0.4,9.7,0.4,14.6,0.1c6.5-0.6,20.9-10,24.4-14.3c2.4-2.9,3.9-7.4,2.4-11.1&#xA;&#9;&#9;c-1.1-2.4-3.6-3.9-6.2-3.7C218.2,203.6,217.3,203.8,216.4,204.1z"/>
</g>
<g id="character_3_team-work-2-84">
	<polygon class="st12_team-work-2-84" points="294.8,126.9 334.1,103.8 334.1,232 294.8,255.6 &#9;"/>
	<path class="st5_team-work-2-84" d="M326.1,172c0,0-10.3,0.9-12.5,0s-9-3.4-9.5-1.4s3.4,3,3.4,3s-7,1.8-8.9,2.3s-0.9,2.4,0.7,2.1&#xA;&#9;&#9;c0,0-4.1,1.8-2.7,2.8c0.9,0.5,2,0.7,3,0.4c0,0-1.9,1.5,0.2,2.4c2-0.2,3.9-0.6,5.7-1.3c0,0-2.4,2-1.6,2.5s0.5,1.1,7.6-2.6&#xA;&#9;&#9;c0,0,14.7-3.3,18-3.9"/>
	<path class="st3_team-work-2-84 targetColor" d="M388.4,286.6l2-1.3l0-22.9l-10-0.3c0,0-0.2,9.8-2.5,12s-8.3,0.6-8.8,0.8s-4.5-1-6.3,0.9s6,7.1,10.2,8.1&#xA;&#9;&#9;c2.8,0.6,5.8,0.7,8.6,0.3c0,0,0.9-5.9,2.4-5.3s1.5,6.8,1.5,6.8L388.4,286.6z" style="fill: rgb(104, 225, 253);"/>
	<path class="st8_team-work-2-84" d="M398.2,197.9c-0.1-15.2-1.3-29.1-13.4-39.7l-0.8,2.8c0-0.1,0-0.2,0-0.3c-0.1-1.3-2.3-1.9-2.5-0.4&#xA;&#9;&#9;c0,0.1,0,0.2,0,0.4v0.1c-0.1,0.5-0.1,1-0.1,1.5c-0.5-0.5-1.3-0.6-1.8-0.1c-0.1,0-0.1,0.1-0.2,0.2c-2.4,0.8-3.3,4.2-3.3,6.3&#xA;&#9;&#9;c0,0.7,0.6,1.3,1.3,1.3c0.7,0,1.3-0.6,1.3-1.3c-0.1-1,0.1-1.9,0.7-2.8l0.2-0.7v0.1l0,0.1c-0.1,0.6-0.1,1.3,0.1,1.9&#xA;&#9;&#9;c0.1,0.3,0.3,0.6,0.6,0.8c0.1,0.5,0.2,1,0.4,1.5l-3.5,1l-5,32c0,0,0.7,69.8,2.8,70.4c14.5,4.2,20.5-2.8,20.5-2.8&#xA;&#9;&#9;C396.5,246.2,398.5,221.9,398.2,197.9z"/>
	<path class="st3_team-work-2-84 targetColor" d="M360.8,304.3l2-1.3l0-23l-10.1-0.4c0,0-0.2,9.8-2.5,12s-8.3,0.6-8.8,0.8s-4.5-1-6.3,0.9s6,7.1,10.2,8.1&#xA;&#9;&#9;c2.8,0.6,5.8,0.7,8.6,0.3c0,0,0.9-5.9,2.3-5.3s1.5,6.8,1.5,6.8L360.8,304.3z" style="fill: rgb(104, 225, 253);"/>
	<path class="st8_team-work-2-84" d="M364.4,168.5c0,0-9.3,34.3-13.1,64.9c-0.9,7.4-8.5,51.3-8.5,51.3s12.5,4.6,23.7,1c0,0,13.3-56,13.9-57.1&#xA;&#9;&#9;s9.5-37.4,10.6-63.4"/>
	<path class="st3_team-work-2-84 targetColor" d="M363.3,122.9l-5.6,1c-1.1,0.8-9.5,10.3-10.2,19.9c0.6,2.5,1.4,5,2.4,7.5c1.1,3.3,2.4,6.6,3.8,9.8&#xA;&#9;&#9;c1.5,3.5,3.2,6.9,5.2,10.2c0.9,1.4,1.3,2.1,2.3,3.4c0.8,0.2,1.7,0.3,2.5,0.2c17.1-2.1,23.8-15.6,23.6-17&#xA;&#9;&#9;c-0.1-1.6-7.8-18.6-12.4-28.8C372.9,124.7,368.2,122.1,363.3,122.9z" style="fill: rgb(104, 225, 253);"/>
	<path class="st5_team-work-2-84" d="M341.9,111.9c0,0,4.9,18.1,11.8,16.9s10.7-11.6,9.6-15.3S347.7,102.2,341.9,111.9z"/>
	<path class="st0_team-work-2-84" d="M367.3,90.8c-3.4-2.3-8.1-1.8-10.9,1.2c-2.5,2.9-2.9,6.7-2,10.2c-4.3-0.8-9.2,0.4-13.6,5.2c0,0-3.9,5.3-1,8.1&#xA;&#9;&#9;s6.9,0.5,10.6-0.9s2.7,3.2,4.8,6.4s3.9,2.9,5.5,2.3s7.1-5.6,3.6-13.6c-0.2-0.5-0.5-1-0.7-1.4c0.9-0.4,1.8-0.9,2.7-1.4&#xA;&#9;&#9;c2-1.1,3.6-2.8,4.7-4.8C372.5,98,371,93.3,367.3,90.8z"/>
	<path class="st10_team-work-2-84" d="M387,190.4c-0.8,16.4-5.6,32.1-9.8,47.9s-7.6,31.5-10.6,47.4c0.5-0.1,0.9-0.3,1.4-0.4&#xA;&#9;&#9;c3-16.1,6.6-32.1,10.8-47.9c4.1-15.5,8.7-30.9,9.5-47C388.4,189.5,387.1,189.5,387,190.4z"/>
	<path class="st3_team-work-2-84 targetColor" d="M347.5,143.8c0,0-4.8,14.7-8.9,18.6c-2.8,2.7-15.1,6.9-22.2,9.2c0.1,4.6,2.1,8.8,4.7,12.5&#xA;&#9;&#9;c10.4-2.4,27.3-8.5,31.5-13.4c6.1-7.2,8.9-17.7,8.9-17.7L347.5,143.8z" style="fill: rgb(104, 225, 253);"/>
</g>
</svg>